<svg width="21" height="18" viewBox="0 0 21 18" fill="none" xmlns="http://www.w3.org/2000/svg">
<path d="M20.0476 3.04762H6.95238M4.57143 3.04762H1M20.0476 14.9524H6.95238M4.57143 14.9524H1M14.0952 9H1M20.0476 9H16.4762M5.76191 0.666667C6.07764 0.666667 6.38044 0.792092 6.6037 1.01535C6.82696 1.23861 6.95238 1.54141 6.95238 1.85714V4.2381C6.95238 4.55383 6.82696 4.85663 6.6037 5.07989C6.38044 5.30315 6.07764 5.42857 5.76191 5.42857C5.44617 5.42857 5.14337 5.30315 4.92011 5.07989C4.69685 4.85663 4.57143 4.55383 4.57143 4.2381V1.85714C4.57143 1.54141 4.69685 1.23861 4.92011 1.01535C5.14337 0.792092 5.44617 0.666667 5.76191 0.666667ZM5.76191 12.5714C6.07764 12.5714 6.38044 12.6969 6.6037 12.9201C6.82696 13.1434 6.95238 13.4462 6.95238 13.7619V16.1429C6.95238 16.4586 6.82696 16.7614 6.6037 16.9847C6.38044 17.2079 6.07764 17.3333 5.76191 17.3333C5.44617 17.3333 5.14337 17.2079 4.92011 16.9847C4.69685 16.7614 4.57143 16.4586 4.57143 16.1429V13.7619C4.57143 13.4462 4.69685 13.1434 4.92011 12.9201C5.14337 12.6969 5.44617 12.5714 5.76191 12.5714ZM15.2857 6.61905C15.6014 6.61905 15.9043 6.74447 16.1275 6.96773C16.3508 7.19099 16.4762 7.49379 16.4762 7.80952V10.1905C16.4762 10.5062 16.3508 10.809 16.1275 11.0323C15.9043 11.2555 15.6014 11.381 15.2857 11.381C14.97 11.381 14.6672 11.2555 14.4439 11.0323C14.2207 10.809 14.0952 10.5062 14.0952 10.1905V7.80952C14.0952 7.49379 14.2207 7.19099 14.4439 6.96773C14.6672 6.74447 14.97 6.61905 15.2857 6.61905Z" stroke="black" stroke-linecap="round" stroke-linejoin="round"/>
</svg>
