<svg width="17" height="18" viewBox="0 0 17 18" fill="none" xmlns="http://www.w3.org/2000/svg">
<path d="M12.8809 17.1667C11.9527 17.1667 11.0624 16.7979 10.4061 16.1415C9.74969 15.4852 9.38094 14.5949 9.38094 13.6667C9.38094 12.7384 9.74969 11.8482 10.4061 11.1918C11.0624 10.5354 11.9527 10.1667 12.8809 10.1667C13.8092 10.1667 14.6994 10.5354 15.3558 11.1918C16.0122 11.8482 16.3809 12.7384 16.3809 13.6667C16.3809 14.5949 16.0122 15.4852 15.3558 16.1415C14.6994 16.7979 13.8092 17.1667 12.8809 17.1667ZM3.54761 17.1667C2.61935 17.1667 1.72911 16.7979 1.07273 16.1415C0.416357 15.4852 0.0476074 14.5949 0.0476074 13.6667C0.0476074 12.7384 0.416357 11.8482 1.07273 11.1918C1.72911 10.5354 2.61935 10.1667 3.54761 10.1667C4.47587 10.1667 5.3661 10.5354 6.02248 11.1918C6.67886 11.8482 7.04761 12.7384 7.04761 13.6667C7.04761 14.5949 6.67886 15.4852 6.02248 16.1415C5.3661 16.7979 4.47587 17.1667 3.54761 17.1667ZM12.8809 7.83333C11.9527 7.83333 11.0624 7.46458 10.4061 6.80821C9.74969 6.15183 9.38094 5.26159 9.38094 4.33333C9.38094 3.40508 9.74969 2.51484 10.4061 1.85846C11.0624 1.20208 11.9527 0.833333 12.8809 0.833333C13.8092 0.833333 14.6994 1.20208 15.3558 1.85846C16.0122 2.51484 16.3809 3.40508 16.3809 4.33333C16.3809 5.26159 16.0122 6.15183 15.3558 6.80821C14.6994 7.46458 13.8092 7.83333 12.8809 7.83333ZM3.54761 7.83333C2.61935 7.83333 1.72911 7.46458 1.07273 6.80821C0.416357 6.15183 0.0476074 5.26159 0.0476074 4.33333C0.0476074 3.40508 0.416357 2.51484 1.07273 1.85846C1.72911 1.20208 2.61935 0.833333 3.54761 0.833333C4.47587 0.833333 5.3661 1.20208 6.02248 1.85846C6.67886 2.51484 7.04761 3.40508 7.04761 4.33333C7.04761 5.26159 6.67886 6.15183 6.02248 6.80821C5.3661 7.46458 4.47587 7.83333 3.54761 7.83333Z" fill="black"/>
</svg>
