<svg width="22" height="20" viewBox="0 0 22 20" fill="none" xmlns="http://www.w3.org/2000/svg">
<path d="M3.38098 4.75H18.381C19.1766 4.75 19.9397 5.06607 20.5023 5.62868C21.0649 6.19129 21.381 6.95435 21.381 7.75V12.25C21.381 13.0456 21.0649 13.8087 20.5023 14.3713C19.9397 14.9339 19.1766 15.25 18.381 15.25H3.38098C2.58533 15.25 1.82227 14.9339 1.25966 14.3713C0.697052 13.8087 0.380981 13.0456 0.380981 12.25V7.75C0.380981 6.95435 0.697052 6.19129 1.25966 5.62868C1.82227 5.06607 2.58533 4.75 3.38098 4.75ZM3.38098 6.25C2.98316 6.25 2.60163 6.40804 2.32032 6.68934C2.03902 6.97064 1.88098 7.35218 1.88098 7.75V12.25C1.88098 12.6478 2.03902 13.0294 2.32032 13.3107C2.60163 13.592 2.98316 13.75 3.38098 13.75H18.381C18.7788 13.75 19.1603 13.592 19.4416 13.3107C19.7229 13.0294 19.881 12.6478 19.881 12.25V7.75C19.881 7.35218 19.7229 6.97064 19.4416 6.68934C19.1603 6.40804 18.7788 6.25 18.381 6.25H3.38098ZM0.380981 1C0.380981 0.801088 0.459999 0.610322 0.600651 0.46967C0.741304 0.329018 0.932069 0.25 1.13098 0.25H20.631C20.8299 0.25 21.0207 0.329018 21.1613 0.46967C21.302 0.610322 21.381 0.801088 21.381 1C21.381 1.19891 21.302 1.38968 21.1613 1.53033C21.0207 1.67098 20.8299 1.75 20.631 1.75H1.13098C0.932069 1.75 0.741304 1.67098 0.600651 1.53033C0.459999 1.38968 0.380981 1.19891 0.380981 1ZM0.380981 19C0.380981 18.8011 0.459999 18.6103 0.600651 18.4697C0.741304 18.329 0.932069 18.25 1.13098 18.25H20.631C20.8299 18.25 21.0207 18.329 21.1613 18.4697C21.302 18.6103 21.381 18.8011 21.381 19C21.381 19.1989 21.302 19.3897 21.1613 19.5303C21.0207 19.671 20.8299 19.75 20.631 19.75H1.13098C0.932069 19.75 0.741304 19.671 0.600651 19.5303C0.459999 19.3897 0.380981 19.1989 0.380981 19Z" fill="black"/>
</svg>
