<svg width="19" height="20" viewBox="0 0 19 20" fill="none" xmlns="http://www.w3.org/2000/svg">
<path d="M15.9167 2.66659H14.0833V1.74992C14.0833 1.5068 13.9868 1.27365 13.8149 1.10174C13.6429 0.929829 13.4098 0.833252 13.1667 0.833252C12.9236 0.833252 12.6904 0.929829 12.5185 1.10174C12.3466 1.27365 12.25 1.5068 12.25 1.74992V2.66659H6.75V1.74992C6.75 1.5068 6.65343 1.27365 6.48152 1.10174C6.30961 0.929829 6.07645 0.833252 5.83334 0.833252C5.59022 0.833252 5.35706 0.929829 5.18515 1.10174C5.01325 1.27365 4.91667 1.5068 4.91667 1.74992V2.66659H3.08334C2.35399 2.66659 1.65452 2.95632 1.13879 3.47204C0.623067 3.98777 0.333336 4.68724 0.333336 5.41658V16.4166C0.333336 17.1459 0.623067 17.8454 1.13879 18.3611C1.65452 18.8769 2.35399 19.1666 3.08334 19.1666H15.9167C16.646 19.1666 17.3455 18.8769 17.8612 18.3611C18.3769 17.8454 18.6667 17.1459 18.6667 16.4166V5.41658C18.6667 4.68724 18.3769 3.98777 17.8612 3.47204C17.3455 2.95632 16.646 2.66659 15.9167 2.66659ZM16.8333 16.4166C16.8333 16.6597 16.7368 16.8929 16.5648 17.0648C16.3929 17.2367 16.1598 17.3333 15.9167 17.3333H3.08334C2.84022 17.3333 2.60706 17.2367 2.43515 17.0648C2.26325 16.8929 2.16667 16.6597 2.16667 16.4166V9.99992H16.8333V16.4166ZM16.8333 8.16658H2.16667V5.41658C2.16667 5.17347 2.26325 4.94031 2.43515 4.7684C2.60706 4.5965 2.84022 4.49992 3.08334 4.49992H4.91667V5.41658C4.91667 5.6597 5.01325 5.89286 5.18515 6.06477C5.35706 6.23667 5.59022 6.33325 5.83334 6.33325C6.07645 6.33325 6.30961 6.23667 6.48152 6.06477C6.65343 5.89286 6.75 5.6597 6.75 5.41658V4.49992H12.25V5.41658C12.25 5.6597 12.3466 5.89286 12.5185 6.06477C12.6904 6.23667 12.9236 6.33325 13.1667 6.33325C13.4098 6.33325 13.6429 6.23667 13.8149 6.06477C13.9868 5.89286 14.0833 5.6597 14.0833 5.41658V4.49992H15.9167C16.1598 4.49992 16.3929 4.5965 16.5648 4.7684C16.7368 4.94031 16.8333 5.17347 16.8333 5.41658V8.16658Z" fill="black"/>
</svg>
